<svg version="1.0" xmlns="http://www.w3.org/2000/svg" width="501" height="112" viewBox="0 0 376 84"><path d="M17.5 10.6C9.2 15.3 1.9 19.9 1.2 20.8.3 21.9 0 27.8 0 42c0 22.3-.5 20.9 9.2 26.5l4.8 2.7v-8L28.2 55l14.3-8.1 6.2 3.3c3.5 1.8 6.3 3.6 6.3 3.9 0 .4-7.6 5.1-16.9 10.5-9.3 5.5-16.7 10.2-16.5 10.6 1.1 1.8 11.5 6.8 14 6.8 4.2 0 33.3-16.9 35.1-20.4.9-1.7 1.3-5 1.1-9.3l-.3-6.6-6.2-3.5c-3.5-1.8-6.3-3.7-6.3-4 0-.4 2.8-2.3 6.3-4.3 6.1-3.5 6.2-3.6 6.1-7.8 0-2.3-.7-4.8-1.5-5.6-.8-.7-8.1-5.2-16.2-9.9C43.5 4.7 37.8 2 35.6 2c-2.1 0-7.9 2.7-18.1 8.6zm24.9 11.1c3.6 2 6.5 3.7 6.3 3.8-.7.7-34 19.5-34.3 19.5-.2 0-.4-3.3-.4-7.4v-7.4l10.3-6c5.6-3.3 10.5-6.1 10.8-6.1.4-.1 3.6 1.6 7.3 3.6zM107.7 22.7c-.4.3-.7 9.8-.7 21V64l12.8-.1c15.5 0 19-1 21.5-6.2 2.6-5.2 1.3-10.3-3.2-13.4-1.9-1.3-2.9-2.3-2.2-2.3 2.8 0 5.1-4 5.1-8.9 0-6.5-2-8.8-8.9-10.1-6-1.1-23.4-1.4-24.4-.3zm19.8 9.3c2 .7 2.6 1.6 2.3 3.3-.3 1.9-1 2.2-5.5 2.5l-5.3.3v-3.5c0-3.3.2-3.6 2.9-3.6 1.6 0 4.2.5 5.6 1zm3.3 18.9c.5 3.1-1.2 4.1-7 4.1H119v-7.1l5.8.3c5.1.3 5.7.5 6 2.7zM147.7 22.6c-.4.4-.7 9.9-.7 21.1V64h12l-.2-20.8-.3-20.7-5-.3c-2.8-.2-5.4 0-5.8.4zM165.7 22.7c-.4.3-.7 9.8-.7 21V64h12.3l-.5-11.7c-.3-8.6-.2-11.2.6-9.9.6 1 4.2 6.2 7.9 11.7l6.8 9.9H203l-.2-20.8-.3-20.7-5.2-.3-5.2-.3-.3 11.7-.3 11.7-7.8-11.7L176 22h-4.8c-2.7 0-5.2.3-5.5.7zM219.7 22.7c-.2.4-3 8.7-6.1 18.3-3.2 9.6-6.1 18.8-6.6 20.3l-.9 2.8 6.2-.3 6.1-.3.9-3.7.9-3.8h13.6l.9 3.7.9 3.8 6.1.3 6.2.3-2.4-7.8c-1.4-4.3-4.4-13.6-6.8-20.8l-4.4-13-7-.3c-3.9-.2-7.3.1-7.6.5zm9.5 17.8l1.5 6.5h-7.4l1.5-6.5c.9-3.6 1.9-6.5 2.2-6.5.3 0 1.3 2.9 2.2 6.5zM251 42.9V64h12.3C282 64 286 62.1 286 53.2c0-5.3-1.2-7.7-4.7-9.6-2.5-1.3-2.6-1.4-.6-2 2.5-.8 4.3-4.6 4.3-9.1 0-8.1-3.1-9.7-20.7-10.3l-13.3-.5v21.2zm19.7-11.3c2.4.7 3.5 2.7 2.7 4.9-.5 1.1-2.1 1.5-6 1.5H262v-3.5c0-3.3.2-3.5 3.3-3.5 1.7 0 4.2.3 5.4.6zm4 18c1.2 3.2-1.1 4.9-7.1 5.2l-5.6.3V48h6c4.7 0 6.2.4 6.7 1.6zM300.9 22.9c-8.6 2.8-10.3 6.1-10.4 20.1 0 8.8.3 11.1 2 14 3.1 5.3 7.4 7 18 7 15.8 0 19.9-4.3 19.9-21 0-7.8-.4-10.3-2-13-3.5-6-6.4-7.4-16.1-7.7-4.9-.1-10 .1-11.4.6zm16.3 10.8c2.4 2.1 2.6 16.3.3 18.6-3.6 3.7-13.1 2.8-15.2-1.4-2.4-4.7-1.1-16.1 2-18.1 2.3-1.5 11-.9 12.9.9zM335 23.2c0 .7 2.3 5.2 5 10 2.8 4.8 5 9.1 5 9.4 0 .3-2.5 5-5.5 10.3-3 5.4-5.5 10-5.5 10.4 0 .4 2.9.7 6.5.7h6.5l3.2-6.5c1.8-3.6 3.6-6.5 4-6.5.5 0 2.3 2.9 4 6.5l3.2 6.5h6.8c3.7 0 6.8-.2 6.8-.4 0-.3-2.3-4.4-5.1-9.3-2.8-4.8-5.5-9.5-5.9-10.3-.6-1.1.9-4.5 4.6-11 3-5.2 5.4-9.8 5.4-10.3 0-.4-3-.7-6.6-.7h-6.5l-3.3 7-3.2 7-3.4-7-3.4-7h-6.3c-4.2 0-6.3.4-6.3 1.2z"/></svg>