<svg version="1.0" xmlns="http://www.w3.org/2000/svg" width="501" height="112" viewBox="0 0 376 84"><path d="M17.5 10.6C9.2 15.3 1.9 19.9 1.2 20.8.3 21.9 0 27.8 0 42c0 22.3-.5 20.9 9.2 26.5l4.8 2.7v-8L28.2 55l14.3-8.1 6.2 3.3c3.5 1.8 6.3 3.6 6.3 3.9 0 .4-7.6 5.1-16.9 10.5-9.3 5.5-16.7 10.2-16.5 10.6 1.1 1.8 11.5 6.8 14 6.8 4.2 0 33.3-16.9 35.1-20.4.9-1.7 1.3-5 1.1-9.3l-.3-6.6-6.2-3.5c-3.5-1.8-6.3-3.7-6.3-4 0-.4 2.8-2.3 6.3-4.3 6.1-3.5 6.2-3.6 6.1-7.8 0-2.3-.7-4.8-1.5-5.6-.8-.7-8.1-5.2-16.2-9.9C43.5 4.7 37.8 2 35.6 2c-2.1 0-7.9 2.7-18.1 8.6zm24.9 11.1c3.6 2 6.5 3.7 6.3 3.8-.7.7-34 19.5-34.3 19.5-.2 0-.4-3.3-.4-7.4v-7.4l10.3-6c5.6-3.3 10.5-6.1 10.8-6.1.4-.1 3.6 1.6 7.3 3.6z"/></svg>