<?xml version="1.0" standalone="no"?>
<!DOCTYPE svg PUBLIC "-//W3C//DTD SVG 20010904//EN"
 "http://www.w3.org/TR/2001/REC-SVG-20010904/DTD/svg10.dtd">
<svg version="1.0" xmlns="http://www.w3.org/2000/svg"
 width="376.000000pt" height="84.000000pt" viewBox="0 0 376.000000 84.000000"
 preserveAspectRatio="xMidYMid meet">
<metadata>
Created by potrace 1.16, written by Peter Selinger 2001-2019
</metadata>
<g transform="translate(0.000000,84.000000) scale(0.100000,-0.100000)"
fill="#000000" stroke="none">
<path d="M175 734 c-83 -47 -156 -93 -163 -102 -9 -11 -12 -70 -12 -212 0
-223 -5 -209 92 -265 l48 -27 0 40 0 40 142 82 143 81 62 -33 c35 -18 63 -36
63 -39 0 -4 -76 -51 -169 -105 -93 -55 -167 -102 -165 -106 11 -18 115 -68
140 -68 42 0 333 169 351 204 9 17 13 50 11 93 l-3 66 -62 35 c-35 18 -63 37
-63 40 0 4 28 23 63 43 61 35 62 36 61 78 0 23 -7 48 -15 56 -8 7 -81 52 -162
99 -102 59 -159 86 -181 86 -21 0 -79 -27 -181 -86z m249 -111 c36 -20 65 -37
63 -38 -7 -7 -340 -195 -343 -195 -2 0 -4 33 -4 74 l0 74 103 60 c56 33 105
61 108 61 4 1 36 -16 73 -36z"/>
<path d="M1077 613 c-4 -3 -7 -98 -7 -210 l0 -203 128 1 c155 0 190 10 215 62
26 52 13 103 -32 134 -19 13 -29 23 -22 23 28 0 51 40 51 89 0 65 -20 88 -89
101 -60 11 -234 14 -244 3z m198 -93 c20 -7 26 -16 23 -33 -3 -19 -10 -22 -55
-25 l-53 -3 0 35 c0 33 2 36 29 36 16 0 42 -5 56 -10z m33 -189 c5 -31 -12
-41 -70 -41 l-48 0 0 35 0 36 58 -3 c51 -3 57 -5 60 -27z"/>
<path d="M1477 614 c-4 -4 -7 -99 -7 -211 l0 -203 60 0 60 0 -2 208 -3 207
-50 3 c-28 2 -54 0 -58 -4z"/>
<path d="M1657 613 c-4 -3 -7 -98 -7 -210 l0 -203 61 0 62 0 -5 117 c-3 86 -2
112 6 99 6 -10 42 -62 79 -117 l68 -99 55 0 54 0 -2 208 -3 207 -52 3 -52 3
-3 -117 -3 -117 -78 117 -77 116 -48 0 c-27 0 -52 -3 -55 -7z"/>
<path d="M2197 613 c-2 -4 -30 -87 -61 -183 -32 -96 -61 -188 -66 -203 l-9
-28 62 3 61 3 9 37 9 38 68 0 68 0 9 -37 9 -38 61 -3 62 -3 -24 78 c-14 43
-44 136 -68 208 l-44 130 -70 3 c-39 2 -73 -1 -76 -5z m95 -178 l15 -65 -37 0
-37 0 15 65 c9 36 19 65 22 65 3 0 13 -29 22 -65z"/>
<path d="M2510 411 l0 -211 123 0 c187 0 227 19 227 108 0 53 -12 77 -47 96
-25 13 -26 14 -6 20 25 8 43 46 43 91 0 81 -31 97 -207 103 l-133 5 0 -212z
m197 113 c24 -7 35 -27 27 -49 -5 -11 -21 -15 -60 -15 l-54 0 0 35 c0 33 2 35
33 35 17 0 42 -3 54 -6z m40 -180 c12 -32 -11 -49 -71 -52 l-56 -3 0 36 0 35
60 0 c47 0 62 -4 67 -16z"/>
<path d="M3009 611 c-86 -28 -103 -61 -104 -201 0 -88 3 -111 20 -140 31 -53
74 -70 180 -70 158 0 199 43 199 210 0 78 -4 103 -20 130 -35 60 -64 74 -161
77 -49 1 -100 -1 -114 -6z m163 -108 c24 -21 26 -163 3 -186 -36 -37 -131 -28
-152 14 -24 47 -11 161 20 181 23 15 110 9 129 -9z"/>
<path d="M3350 608 c0 -7 23 -52 50 -100 28 -48 50 -91 50 -94 0 -3 -25 -50
-55 -103 -30 -54 -55 -100 -55 -104 0 -4 29 -7 65 -7 l65 0 32 65 c18 36 36
65 40 65 5 0 23 -29 40 -65 l32 -65 68 0 c37 0 68 2 68 4 0 3 -23 44 -51 93
-28 48 -55 95 -59 103 -6 11 9 45 46 110 30 52 54 98 54 103 0 4 -30 7 -66 7
l-65 0 -33 -70 -32 -70 -34 70 -34 70 -63 0 c-42 0 -63 -4 -63 -12z"/>
</g>
</svg>
