<?xml version="1.0" standalone="no"?>
<!DOCTYPE svg PUBLIC "-//W3C//DTD SVG 20010904//EN"
 "http://www.w3.org/TR/2001/REC-SVG-20010904/DTD/svg10.dtd">
<svg version="1.0" xmlns="http://www.w3.org/2000/svg"
 width="72.000000pt" height="80.000000pt" viewBox="0 0 72.000000 80.000000"
 preserveAspectRatio="xMidYMid meet">
<metadata>
Created by potrace 1.16, written by Peter Selinger 2001-2019
</metadata>
<g transform="translate(0.000000,80.000000) scale(0.100000,-0.100000)"
fill="#000000" stroke="none">
<path d="M175 714 c-83 -47 -156 -93 -163 -102 -9 -11 -12 -70 -12 -212 0
-223 -5 -209 92 -265 l48 -27 0 40 0 40 142 82 143 81 62 -33 c35 -18 63 -36
63 -39 0 -4 -76 -51 -169 -105 -93 -55 -167 -102 -165 -106 11 -18 115 -68
140 -68 42 0 333 169 351 204 9 17 13 50 11 93 l-3 66 -62 35 c-35 18 -63 37
-63 40 0 4 28 23 63 43 61 35 62 36 61 78 0 23 -7 48 -15 56 -8 7 -81 52 -162
99 -102 59 -159 86 -181 86 -21 0 -79 -27 -181 -86z m249 -111 c36 -20 65 -37
63 -38 -7 -7 -340 -195 -343 -195 -2 0 -4 33 -4 74 l0 74 103 60 c56 33 105
61 108 61 4 1 36 -16 73 -36z"/>
</g>
</svg>
